<svg xmlns="http://www.w3.org/2000/svg" width="40" height="40"><defs><linearGradient id="a" x1="-566.711" x2="-493.288" y1="516.569" y2="621.43" gradientTransform="matrix(.3125 0 0 -.3125 185.625 197.813)" gradientUnits="userSpaceOnUse"><stop offset="0" style="stop-color:#ffb900;stop-opacity:1"/><stop offset="1" style="stop-color:#9100eb;stop-opacity:1"/></linearGradient></defs><path d="M40 20c0 11.047-8.953 20-20 20S0 31.047 0 20 8.953 0 20 0s20 8.953 20 20Zm0 0" style="stroke:none;fill-rule:nonzero;fill:url(#a)"/><path d="M25.73 32.5H14.27c-3.73 0-6.77-3.04-6.77-6.77V14.27c0-3.73 3.04-6.77 6.77-6.77h11.46c3.73 0 6.77 3.04 6.77 6.77v11.46c0 3.73-3.04 6.77-6.77 6.77ZM14.27 9.582a4.696 4.696 0 0 0-4.688 4.688v11.46a4.696 4.696 0 0 0 4.688 4.688h11.46a4.696 4.696 0 0 0 4.688-4.688V14.27a4.696 4.696 0 0 0-4.688-4.688Zm0 0" style="stroke:none;fill-rule:nonzero;fill:#fff;fill-opacity:1"/><path d="M20 26.25A6.258 6.258 0 0 1 13.75 20 6.258 6.258 0 0 1 20 13.75 6.258 6.258 0 0 1 26.25 20 6.258 6.258 0 0 1 20 26.25Zm0-10.418A4.174 4.174 0 0 0 15.832 20 4.174 4.174 0 0 0 20 24.168 4.174 4.174 0 0 0 24.168 20 4.174 4.174 0 0 0 20 15.832ZM28.074 13.36c0 .788-.644 1.433-1.433 1.433-.79 0-1.434-.645-1.434-1.434 0-.789.645-1.433 1.434-1.433.789 0 1.433.644 1.433 1.433Zm0 0" style="stroke:none;fill-rule:nonzero;fill:#fff;fill-opacity:1"/></svg>