<svg xmlns="http://www.w3.org/2000/svg" width="40" height="40"><path style="stroke:none;fill-rule:nonzero;fill:#c13584;fill-opacity:1" d="M36.668 20c0 9.203-7.465 16.668-16.668 16.668S3.332 29.203 3.332 20 10.797 3.332 20 3.332 36.668 10.797 36.668 20Zm0 0"/><path style="stroke:none;fill-rule:nonzero;fill:#fff;fill-opacity:1" d="M20 11.8c2.672 0 2.988.012 4.04.06.976.046 1.507.206 1.858.343.465.184.801.399 1.149.75.351.348.566.684.75 1.149.137.351.297.882.344 1.859.047 1.05.058 1.367.058 4.039 0 2.672-.012 2.988-.058 4.04-.047.976-.207 1.507-.344 1.858-.184.465-.399.801-.75 1.149a3.102 3.102 0 0 1-1.149.75c-.351.137-.882.297-1.859.344-1.05.047-1.367.058-4.039.058-2.672 0-2.988-.012-4.04-.058-.976-.047-1.507-.207-1.858-.344a3.102 3.102 0 0 1-1.149-.75 3.102 3.102 0 0 1-.75-1.149c-.137-.351-.297-.882-.344-1.859-.046-1.05-.058-1.367-.058-4.039 0-2.672.011-2.988.058-4.04.047-.976.207-1.507.344-1.858.184-.465.399-.801.75-1.149a3.102 3.102 0 0 1 1.149-.75c.351-.137.882-.297 1.859-.344 1.05-.046 1.367-.058 4.039-.058Zm0-1.8c-2.715 0-3.055.012-4.121.059-1.066.05-1.793.218-2.43.464a4.9 4.9 0 0 0-1.77 1.157 4.9 4.9 0 0 0-1.156 1.77c-.246.636-.414 1.363-.464 2.429C10.012 16.945 10 17.285 10 20c0 2.715.012 3.055.059 4.121.05 1.067.218 1.793.464 2.43a4.9 4.9 0 0 0 1.157 1.77 4.9 4.9 0 0 0 1.77 1.156c.636.246 1.363.414 2.429.464 1.066.047 1.406.059 4.121.059 2.715 0 3.055-.012 4.121-.059 1.067-.05 1.793-.218 2.43-.464a4.9 4.9 0 0 0 1.77-1.157 4.9 4.9 0 0 0 1.156-1.77c.246-.636.414-1.363.464-2.429.047-1.066.059-1.406.059-4.121 0-2.715-.012-3.055-.059-4.121-.05-1.066-.218-1.793-.464-2.43a4.9 4.9 0 0 0-1.157-1.77 4.9 4.9 0 0 0-1.77-1.156c-.636-.246-1.363-.414-2.429-.464C23.055 10.012 22.715 10 20 10Zm0 0"/><path style="stroke:none;fill-rule:nonzero;fill:#fff;fill-opacity:1" d="M20.004 14.871a5.135 5.135 0 1 0 .004 10.27 5.135 5.135 0 0 0-.004-10.27Zm0 8.465a3.333 3.333 0 0 1 0-6.664 3.333 3.333 0 0 1 3.336 3.332 3.333 3.333 0 0 1-3.336 3.332ZM26.543 14.664a1.2 1.2 0 1 1-2.404-.002 1.2 1.2 0 0 1 2.404.002Zm0 0"/></svg>