<?xml version="1.0" encoding="UTF-8"?>
<svg xmlns="http://www.w3.org/2000/svg" xmlns:xlink="http://www.w3.org/1999/xlink" width="40px" height="40px" viewBox="0 0 40 40" version="1.1">
<g id="surface1">
<path style=" stroke:none;fill-rule:nonzero;fill:rgb(0%,47.843137%,72.54902%);fill-opacity:1;" d="M 40 20 C 40 31.046875 31.046875 40 20 40 C 8.953125 40 0 31.046875 0 20 C 0 8.953125 8.953125 0 20 0 C 31.046875 0 40 8.953125 40 20 Z M 40 20 "/>
<path style=" stroke:none;fill-rule:nonzero;fill:rgb(94.509804%,94.901961%,94.901961%);fill-opacity:1;" d="M 31.949219 21.609375 L 31.949219 29.855469 L 27.167969 29.855469 L 27.167969 22.160156 C 27.167969 20.230469 26.480469 18.910156 24.75 18.910156 C 23.425781 18.910156 22.640625 19.800781 22.296875 20.660156 C 22.171875 20.964844 22.136719 21.394531 22.136719 21.824219 L 22.136719 29.855469 L 17.355469 29.855469 C 17.355469 29.855469 17.421875 16.824219 17.355469 15.476562 L 22.136719 15.476562 L 22.136719 17.511719 C 22.128906 17.53125 22.113281 17.546875 22.105469 17.5625 L 22.136719 17.5625 L 22.136719 17.511719 C 22.773438 16.535156 23.90625 15.136719 26.445312 15.136719 C 29.589844 15.136719 31.949219 17.195312 31.949219 21.609375 Z M 12.355469 8.546875 C 10.71875 8.546875 9.648438 9.617188 9.648438 11.027344 C 9.648438 12.410156 10.6875 13.515625 12.292969 13.515625 L 12.324219 13.515625 C 13.992188 13.515625 15.027344 12.410156 15.027344 11.027344 C 14.996094 9.617188 13.992188 8.546875 12.355469 8.546875 Z M 9.933594 29.855469 L 14.714844 29.855469 L 14.714844 15.476562 L 9.933594 15.476562 Z M 9.933594 29.855469 "/>
</g>
</svg>
