<?xml version="1.0" encoding="UTF-8"?>
<svg xmlns="http://www.w3.org/2000/svg" xmlns:xlink="http://www.w3.org/1999/xlink" width="38px" height="40px" viewBox="0 0 38 40" version="1.1">
<g id="surface1">
<path style=" stroke:none;fill-rule:nonzero;fill:rgb(16.862745%,56.470588%,85.098039%);fill-opacity:1;" d="M 37.261719 23.980469 C 36.703125 26.804688 32.25 29.890625 27.136719 30.488281 C 24.46875 30.800781 21.84375 31.085938 19.042969 30.960938 C 14.464844 30.757812 10.851562 29.890625 10.851562 29.890625 C 10.851562 30.328125 10.878906 30.742188 10.933594 31.132812 C 11.527344 35.5625 15.414062 35.824219 19.09375 35.949219 C 22.808594 36.074219 26.117188 35.054688 26.117188 35.054688 L 26.269531 38.34375 C 26.269531 38.34375 23.671875 39.710938 19.042969 39.960938 C 16.492188 40.101562 13.320312 39.898438 9.628906 38.945312 C 1.625 36.867188 0.246094 28.503906 0.0390625 20.015625 C -0.0273438 17.496094 0.0117188 15.117188 0.0117188 13.132812 C 0.0117188 4.457031 5.8125 1.914062 5.8125 1.914062 C 8.738281 0.597656 13.757812 0.0390625 18.976562 0 L 19.105469 0 C 24.320312 0.0390625 29.347656 0.597656 32.269531 1.914062 C 32.269531 1.914062 38.074219 4.457031 38.074219 13.132812 C 38.074219 13.132812 38.144531 19.535156 37.261719 23.980469 "/>
<path style=" stroke:none;fill-rule:nonzero;fill:rgb(100%,100%,100%);fill-opacity:1;" d="M 31.230469 13.804688 L 31.230469 24.3125 L 26.980469 24.3125 L 26.980469 14.117188 C 26.980469 11.964844 26.058594 10.875 24.210938 10.875 C 22.171875 10.875 21.148438 12.167969 21.148438 14.726562 L 21.148438 20.308594 L 16.925781 20.308594 L 16.925781 14.726562 C 16.925781 12.167969 15.902344 10.875 13.863281 10.875 C 12.015625 10.875 11.089844 11.964844 11.089844 14.117188 L 11.089844 24.3125 L 6.84375 24.3125 L 6.84375 13.804688 C 6.84375 11.660156 7.402344 9.953125 8.523438 8.691406 C 9.679688 7.429688 11.191406 6.78125 13.070312 6.78125 C 15.246094 6.78125 16.890625 7.601562 17.980469 9.238281 L 19.039062 10.976562 L 20.097656 9.238281 C 21.183594 7.601562 22.828125 6.78125 25.003906 6.78125 C 26.878906 6.78125 28.394531 7.429688 29.550781 8.691406 C 30.667969 9.953125 31.230469 11.660156 31.230469 13.804688 "/>
</g>
</svg>
