<?xml version="1.0" encoding="UTF-8"?>
<svg xmlns="http://www.w3.org/2000/svg" xmlns:xlink="http://www.w3.org/1999/xlink" width="40px" height="40px" viewBox="0 0 40 40" version="1.1">
<g id="surface1">
<path style=" stroke:none;fill-rule:nonzero;fill:rgb(16.862745%,56.470588%,85.098039%);fill-opacity:1;" d="M 40 20 C 40 31.046875 31.046875 40 20 40 C 8.953125 40 0 31.046875 0 20 C 0 8.953125 8.953125 0 20 0 C 31.046875 0 40 8.953125 40 20 Z M 40 20 "/>
<path style=" stroke:none;fill-rule:nonzero;fill:rgb(100%,100%,100%);fill-opacity:1;" d="M 29.324219 17.503906 C 29.324219 13.167969 26.480469 11.894531 26.480469 11.894531 C 25.046875 11.234375 22.585938 10.960938 20.03125 10.9375 L 19.96875 10.9375 C 17.414062 10.957031 14.953125 11.234375 13.519531 11.894531 C 13.519531 11.894531 10.675781 13.164062 10.675781 17.503906 C 10.675781 18.496094 10.65625 19.683594 10.6875 20.945312 C 10.789062 25.1875 11.464844 29.367188 15.386719 30.40625 C 17.195312 30.882812 18.746094 30.984375 20 30.917969 C 22.269531 30.792969 23.542969 30.109375 23.542969 30.109375 L 23.46875 28.464844 C 23.46875 28.464844 21.847656 28.976562 20.027344 28.914062 C 18.222656 28.851562 16.320312 28.71875 16.027344 26.503906 C 16 26.296875 15.988281 26.089844 15.988281 25.882812 C 15.988281 25.882812 17.757812 26.316406 20 26.417969 C 21.371094 26.480469 22.65625 26.335938 23.964844 26.183594 C 26.46875 25.882812 28.652344 24.339844 28.925781 22.929688 C 29.359375 20.707031 29.324219 17.503906 29.324219 17.503906 Z M 25.972656 23.09375 L 23.890625 23.09375 L 23.890625 17.996094 C 23.890625 16.921875 23.4375 16.375 22.535156 16.375 C 21.535156 16.375 21.035156 17.023438 21.035156 18.300781 L 21.035156 21.09375 L 18.964844 21.09375 L 18.964844 18.300781 C 18.964844 17.019531 18.464844 16.375 17.464844 16.375 C 16.5625 16.375 16.109375 16.921875 16.109375 17.996094 L 16.109375 23.09375 L 14.027344 23.09375 L 14.027344 17.84375 C 14.027344 16.769531 14.300781 15.917969 14.851562 15.285156 C 15.417969 14.652344 16.160156 14.332031 17.078125 14.332031 C 18.144531 14.332031 18.949219 14.742188 19.484375 15.558594 L 20 16.425781 L 20.519531 15.558594 C 21.054688 14.738281 21.859375 14.332031 22.925781 14.332031 C 23.84375 14.332031 24.585938 14.65625 25.152344 15.285156 C 25.699219 15.914062 25.972656 16.769531 25.972656 17.84375 Z M 25.972656 23.09375 "/>
</g>
</svg>
