<?xml version="1.0" encoding="UTF-8"?>
<svg xmlns="http://www.w3.org/2000/svg" xmlns:xlink="http://www.w3.org/1999/xlink" width="47px" height="50px" viewBox="0 0 47 50" version="1.1">
<g id="surface1">
<path style=" stroke:none;fill-rule:nonzero;fill:rgb(16.862745%,56.470588%,85.098039%);fill-opacity:1;" d="M 46.085938 29.976562 C 45.394531 33.503906 39.886719 37.363281 33.5625 38.109375 C 30.265625 38.5 27.015625 38.859375 23.554688 38.703125 C 17.890625 38.445312 13.421875 37.363281 13.421875 37.363281 C 13.421875 37.910156 13.457031 38.429688 13.523438 38.914062 C 14.257812 44.453125 19.066406 44.78125 23.617188 44.9375 C 28.210938 45.09375 32.304688 43.816406 32.304688 43.816406 L 32.492188 47.929688 C 32.492188 47.929688 29.277344 49.640625 23.554688 49.953125 C 20.398438 50.125 16.476562 49.875 11.910156 48.679688 C 2.007812 46.082031 0.304688 35.628906 0.046875 25.019531 C -0.0351562 21.871094 0.015625 18.898438 0.015625 16.417969 C 0.015625 5.570312 7.191406 2.390625 7.191406 2.390625 C 10.808594 0.746094 17.015625 0.0507812 23.46875 0 L 23.628906 0 C 30.082031 0.0507812 36.296875 0.746094 39.914062 2.390625 C 39.914062 2.390625 47.089844 5.570312 47.089844 16.417969 C 47.089844 16.417969 47.179688 24.417969 46.085938 29.976562 "/>
<path style=" stroke:none;fill-rule:nonzero;fill:rgb(100%,100%,100%);fill-opacity:1;" d="M 38.625 17.257812 L 38.625 30.390625 L 33.371094 30.390625 L 33.371094 17.644531 C 33.371094 14.957031 32.230469 13.59375 29.945312 13.59375 C 27.421875 13.59375 26.15625 15.210938 26.15625 18.410156 L 26.15625 25.386719 L 20.933594 25.386719 L 20.933594 18.410156 C 20.933594 15.210938 19.667969 13.59375 17.144531 13.59375 C 14.859375 13.59375 13.71875 14.957031 13.71875 17.644531 L 13.71875 30.390625 L 8.464844 30.390625 L 8.464844 17.257812 C 8.464844 14.574219 9.15625 12.441406 10.542969 10.863281 C 11.972656 9.285156 13.84375 8.476562 16.167969 8.476562 C 18.855469 8.476562 20.890625 9.5 22.238281 11.546875 L 23.546875 13.71875 L 24.855469 11.546875 C 26.199219 9.5 28.234375 8.476562 30.925781 8.476562 C 33.246094 8.476562 35.121094 9.285156 36.550781 10.863281 C 37.933594 12.441406 38.625 14.574219 38.625 17.257812 "/>
</g>
</svg>
